<svg id="Layer_1" data-name="Layer 1" xmlns="http://www.w3.org/2000/svg" viewBox="0 0 16 12"><defs><style>.cls-1{fill:#6dc497;}</style></defs><title>eyeball</title><path class="cls-1" d="M138.9,175.9c4.71,0,7.74-5.28,7.87-5.5a1,1,0,0,0,0-1c-.13-.23-3.14-5.52-7.87-5.52s-7.75,5.29-7.88,5.52a1,1,0,0,0,0,1C131.15,170.62,134.17,175.9,138.9,175.9Zm0-10c2.84,0,5,2.84,5.82,4-.79,1.17-3,4-5.82,4s-5-2.83-5.82-4C133.86,168.74,136,165.9,138.9,165.9Z" transform="translate(-130.9 -163.9)"/><circle class="cls-1" cx="8" cy="6" r="2.85"/></svg>