<svg id="Layer_1" data-name="Layer 1" xmlns="http://www.w3.org/2000/svg" viewBox="0 0 16 15.6"><defs><style>.cls-1{fill:#6dc497;fill-rule:evenodd;}</style></defs><title>github</title><path class="cls-1" d="M138.9,175.9a8,8,0,0,0-2.53,15.59c.4.08.55-.17.55-.38s0-.69,0-1.36c-2.22.48-2.69-1.07-2.69-1.07a2.07,2.07,0,0,0-.89-1.17c-.73-.5.06-.49.06-.49a1.68,1.68,0,0,1,1.22.82,1.71,1.71,0,0,0,2.33.67,1.68,1.68,0,0,1,.51-1.07c-1.78-.2-3.65-.89-3.65-3.95a3.1,3.1,0,0,1,.83-2.15,2.82,2.82,0,0,1,.08-2.12s.67-.21,2.2.82a7.54,7.54,0,0,1,4,0c1.53-1,2.2-.82,2.2-.82a2.87,2.87,0,0,1,.08,2.12,3.1,3.1,0,0,1,.82,2.15c0,3.07-1.87,3.75-3.65,3.94a1.91,1.91,0,0,1,.54,1.48c0,1.07,0,1.94,0,2.2s.15.46.55.38a8,8,0,0,0-2.53-15.59Z" transform="translate(-130.9 -175.9)"/></svg>