<?xml version="1.0" encoding="utf-8"?>
<!-- Generator: Adobe Illustrator 23.1.1, SVG Export Plug-In . SVG Version: 6.00 Build 0)  -->
<svg version="1.1" id="Layer_1" xmlns="http://www.w3.org/2000/svg" xmlns:xlink="http://www.w3.org/1999/xlink" x="0px" y="0px"
	 viewBox="0 0 400 200" style="enable-background:new 0 0 400 200;" xml:space="preserve">
<style type="text/css">
	.st0{fill:#6D6D6D;}
	.st1{font-family:'MoonFlowerBold';}
	.st2{font-size:127.4198px;}
</style>
<g>
	<g>
		<path class="st0" d="M274,165.43c9.01-2.91,18.72-6.18,28.32-4.75c7,1.04,14.62,4.78,17.45,11.68c0.38,0.92,1.21,1.55,2.25,1.28
			c0.87-0.23,1.65-1.34,1.28-2.25c-2.54-6.19-7.84-10.37-14.01-12.67c-7.15-2.67-14.94-2.3-22.31-0.76
			c-4.74,0.99-9.36,2.47-13.96,3.96C270.8,162.62,271.75,166.15,274,165.43L274,165.43z"/>
	</g>
</g>
<g>
	<text transform="matrix(1 0 0 1 78.8545 147.3203)" class="st0 st1 st2">Oh No!!</text>
</g>
</svg>
