<?xml version="1.0" encoding="utf-8"?>
<!-- Generator: Adobe Illustrator 25.4.1, SVG Export Plug-In . SVG Version: 6.00 Build 0)  -->
<svg version="1.1" id="Layer_1" xmlns="http://www.w3.org/2000/svg" xmlns:xlink="http://www.w3.org/1999/xlink" x="0px" y="0px"
	 viewBox="0 0 100 100" style="enable-background:new 0 0 100 100;" xml:space="preserve">
<style type="text/css">
	.st0{fill:#A58EFF;}
	.st1{fill:#20CC94;}
	.st2{fill:#00A1E1;}
	.st3{fill:#EAAC61;}
	.st4{fill:#F7F8F9;}
</style>
<path class="st0" d="M69.7695,14.3524C67.6825,10.0032,63.2378,7,58.0914,7C55.0289,7,52.2167,8.0658,50,9.8434
	C47.7833,8.0658,44.9711,7,41.9086,7c-4.6878,0-8.7934,2.4917-11.0653,6.2228c-1.1933,1.9597-1.8809,4.2612-1.8809,6.7235
	c0,2.1323,0.6178,4.0948,1.432,5.916C35.1878,36.5847,50.0991,50,50.0991,50s17.3981-15.1172,20.4011-26.3612
	c0.3151-1.1797,0.5374-2.4091,0.5374-3.6925C71.0376,17.9427,70.582,16.0457,69.7695,14.3524z"/>
<path class="st1" d="M69.7695,85.6476C67.6825,89.9968,63.2378,93,58.0914,93c-3.0625,0-5.8747-1.0658-8.0914-2.8434
	C47.7833,91.9342,44.9711,93,41.9086,93c-4.6878,0-8.7934-2.4917-11.0653-6.2228c-1.1933-1.9597-1.8809-4.2612-1.8809-6.7235
	c0-2.1323,0.6178-4.0948,1.432-5.916C35.1878,63.4153,50.0991,50,50.0991,50s17.3981,15.1173,20.4011,26.3612
	c0.3151,1.1797,0.5374,2.4091,0.5374,3.6925C71.0376,82.0573,70.582,83.9544,69.7695,85.6476z"/>
<path class="st2" d="M85.6476,69.7695C89.9968,67.6825,93,63.2378,93,58.0914c0-3.0625-1.0658-5.8747-2.8434-8.0914
	C91.9342,47.7833,93,44.9711,93,41.9086c0-4.6878-2.4917-8.7934-6.2228-11.0653c-1.9597-1.1933-4.2613-1.8809-6.7235-1.8809
	c-2.1323,0-4.0948,0.6178-5.916,1.432C63.4153,35.1878,50,50.0991,50,50.0991s15.1172,17.3981,26.3612,20.4011
	c1.1797,0.3151,2.4091,0.5374,3.6926,0.5374C82.0573,71.0376,83.9544,70.582,85.6476,69.7695z"/>
<path class="st3" d="M14.3524,69.7695C10.0032,67.6825,7,63.2378,7,58.0914C7,55.0289,8.0658,52.2167,9.8434,50
	C8.0658,47.7833,7,44.9711,7,41.9086c0-4.6878,2.4917-8.7934,6.2228-11.0653c1.9597-1.1933,4.2612-1.8809,6.7235-1.8809
	c2.1323,0,4.0948,0.6178,5.916,1.432C36.5847,35.1878,50,50.0991,50,50.0991S34.8827,67.4972,23.6388,70.5003
	c-1.1797,0.3151-2.4091,0.5374-3.6925,0.5374C17.9427,71.0376,16.0456,70.582,14.3524,69.7695z"/>
<circle class="st4" cx="50" cy="50" r="4.7787"/>
</svg>
