<svg id="ifcolorful-logo" xmlns="http://www.w3.org/2000/svg" viewBox="0 0 356.0831 71.2166"><defs><style>.gray{fill:#648585;}.yellow{fill:#eaac61;}.green{fill:#20cc94;}.blue{fill:#00a1e1;}.purple{fill:#a58eff;}.text{fill:#f7f8f9;}</style></defs><!-- Boxes --><rect class="gray" width="71.2166" height="71.2166"/><rect class="yellow" x="71.2166" width="71.2166" height="71.2166"/><rect class="green" x="142.4333" width="71.2166" height="71.2166"/><rect class="blue" x="213.6499" width="71.2166" height="71.2166"/><rect class="purple" x="284.8665" width="71.2166" height="71.2166"/><!-- Text --><path class="text" d="M141.8116,321.0127H137.24V294.4416h-8.993v-3.9549h13.5645Zm-2.2282-42.07a2.9723,2.9723,0,0,1,2.1987.9228,3.0455,3.0455,0,0,1,.9068,2.2121,3.0867,3.0867,0,0,1-.8934,2.2563,2.9826,2.9826,0,0,1-2.2121.9082,2.8769,2.8769,0,0,1-2.1239-.9523,3.0826,3.0826,0,0,1-.9229-2.2122,3.0341,3.0341,0,0,1,.9229-2.1974A2.9006,2.9006,0,0,1,139.5834,278.9432Z" transform="translate(-121.9584 -264.3917)"/><path class="text" d="M185.7254,280.1442l-1.201,3.7208a21.3234,21.3234,0,0,0-5.8313-.9376q-2.46,0-3.3837,1.3923-.923,1.39-.9229,5.6093v.5577h10.2556v3.9549H174.3865v26.5711h-4.5687V294.4416h-7.677v-3.9549h7.677v-1.0258q0-5.83,1.9928-8.1732,1.99-2.3452,6.8825-2.3445A23.9489,23.9489,0,0,1,185.7254,280.1442Z" transform="translate(-121.9584 -264.3917)"/><path class="text" d="M221.3231,319.9869a20.8687,20.8687,0,0,1-8.76,1.8162q-7.2063,0-11.5-4.3788t-4.2905-11.6452q0-7.2663,4.32-11.6452a15.24,15.24,0,0,1,11.3523-4.38,24.0535,24.0535,0,0,1,8.76,1.6116l-1.2011,3.7783a23.2883,23.2883,0,0,0-7.5-1.4351,10.24,10.24,0,0,0-7.9846,3.2514q-2.941,3.252-2.9424,8.8191a12.5193,12.5193,0,0,0,3.0467,8.5691,10.0611,10.0611,0,0,0,7.9392,3.4707,23.2013,23.2013,0,0,0,7.9685-1.494Z" transform="translate(-121.9584 -264.3917)"/><path class="text" d="M245.6085,289.7538a12.4492,12.4492,0,0,1,10.0175,4.3948q3.72,4.3936,3.7208,11.5717,0,7.2363-3.7208,11.66a13.5892,13.5892,0,0,1-20.051.0147q-3.7075-4.41-3.7075-11.6746,0-7.2062,3.7208-11.5864A12.4722,12.4722,0,0,1,245.6085,289.7538Zm0,28.0651a7.5465,7.5465,0,0,0,6.5616-3.5149,16.6768,16.6768,0,0,0,.0294-17.1969,8.1238,8.1238,0,0,0-13.1846-.0441,17.0166,17.0166,0,0,0,.0294,17.2852A7.526,7.526,0,0,0,245.6085,317.8189Z" transform="translate(-121.9584 -264.3917)"/><path class="text" d="M291.221,321.0127H278.74V283.6309h-7.9686v-3.9548h12.54v37.3818h7.91Z" transform="translate(-121.9584 -264.3917)"/><path class="text" d="M317.6169,289.7538a12.4492,12.4492,0,0,1,10.0175,4.3948q3.72,4.3936,3.7208,11.5717,0,7.2363-3.7208,11.66a13.5892,13.5892,0,0,1-20.051.0147q-3.7075-4.41-3.7075-11.6746,0-7.2062,3.7208-11.5864A12.4722,12.4722,0,0,1,317.6169,289.7538Zm0,28.0651a7.5465,7.5465,0,0,0,6.5616-3.5149,16.6768,16.6768,0,0,0,.0294-17.1969,8.1238,8.1238,0,0,0-13.1846-.0441,17.0166,17.0166,0,0,0,.0294,17.2852A7.526,7.526,0,0,0,317.6169,317.8189Z" transform="translate(-121.9584 -264.3917)"/><path class="text" d="M365.9283,291.3066l-1.8456,4.3948a13.4166,13.4166,0,0,0-5.2161-1.3187,7.5988,7.5988,0,0,0-3.9535,1.1569,12.6727,12.6727,0,0,0-3.56,3.31,11.9579,11.9579,0,0,0-1.6263,2.4168v19.7461h-4.542v-30.526h4.542v6.18q3.6632-6.9134,9.4932-6.9133A15.4094,15.4094,0,0,1,365.9283,291.3066Z" transform="translate(-121.9584 -264.3917)"/><path class="text" d="M401.756,280.1442l-1.201,3.7208a21.3245,21.3245,0,0,0-5.8313-.9376q-2.46,0-3.3838,1.3923-.9228,1.39-.9228,5.6093v.5577h10.2556v3.9549H390.4171v26.5711h-4.5687V294.4416h-7.677v-3.9549h7.677v-1.0258q0-5.83,1.9928-8.1732,1.99-2.3452,6.8825-2.3445A23.9489,23.9489,0,0,1,401.756,280.1442Z" transform="translate(-121.9584 -264.3917)"/><path class="text" d="M437.4071,321.0127h-4.5687v-4.5112q-4.9231,5.2441-10.3706,5.2441-8.5865,0-8.5838-10.4V290.4867h4.5687v19.54a10.958,10.958,0,0,0,1.2305,5.8152,4.5627,4.5627,0,0,0,4.1622,1.9193q4.1889,0,8.993-5.2148v-22.06h4.5687Z" transform="translate(-121.9584 -264.3917)"/><path class="text" d="M471.2446,321.0127H458.7635V283.6309H450.795v-3.9548h12.54v37.3818h7.91Z" transform="translate(-121.9584 -264.3917)"/></svg>