<?xml version="1.0" encoding="utf-8"?>
<svg version="1.1" xmlns="http://www.w3.org/2000/svg" xmlns:xlink="http://www.w3.org/1999/xlink" x="0px" y="0px"
	 viewBox="0 0 2450 1250" style="enable-background:new 0 0 2450 1250;" xml:space="preserve">
<style type="text/css">
	.yellow{fill:#EAAD61;}
	.blue{fill:#17A0DB;}
	.green{fill:#48BC90;}
	.purple{fill:#988CC3;}
	.gray{fill:none;stroke:#3A5466;stroke-width:5;stroke-linecap:round;stroke-linejoin:round;stroke-miterlimit:10;}
	#sarina,
	#i,
	#chen {
		stroke-dasharray: 1;
		stroke-dashoffset: 1;
	}
	#sarina {
		animation: maindash 3s linear forwards;
	}
	#i,
	#chen {
		animation: dash 0.5s linear forwards;
		animation-delay: 3s;
	}
	@keyframes maindash {
		0% { opacity: 0; }
		50% { opacity: 1; }
		to {
			stroke-dashoffset: 0;
		}
	}
	@keyframes dash {
		to {
			stroke-dashoffset: 0;
		}
	}
	#colors path {
		opacity: 0;
	}
	.yellow {animation: grow 1s linear forwards; animation-delay: 1s;}
	.purple {animation: grow 1s linear forwards; animation-delay: 1.5s;}
	.blue {animation: grow 1s linear forwards; animation-delay: 2s;}
	.green {animation: grow 1s linear forwards; animation-delay: 2.1s;}
	@keyframes grow {
		to {opacity: 1;}
	}
</style>
<g id="colors">
	<path class="yellow" d="M367.8,604.7c-23.8,43.4,126.6,127.7,95.3,197.9c-44.1,99-198,24.3-131,182.5
		c34.1,80.5,147.6,131.3,281.8,131.5c27.7,0,56.8-2.9,79.5-17.4c27.7-17.6,25.3-53.8,42.1-80.6c70.8-112.9-84.8-330.2-176.5-380
		C486.7,599.3,391.4,561.7,367.8,604.7z"/>
	<path class="blue" d="M594.5,664.7c-15.3,0-23.5,4.4-34.4,12.8c-10.9,8.4-16.8,20.2-18.5,32.2c-1.1,7.9-0.4,16.3,4.8,23.2
		c4.9,6.4,13.1,10.6,21.1,14.6c12.9,6.5,28,13.3,42.6,9.8c10.7-2.6,18.1-10,24.8-17.1c3.4-3.6,6.7-7.1,10.1-10.7
		c10-10.6,20.5-24.1,13.4-36.1c-4.6-7.8-14.6-13.6-25.3-15.6C599.5,671.2,604.5,664.7,594.5,664.7z"/>
	<path class="green" d="M456.7,676.5c15.1,6.7,27.8,9.2,44.6,5.8c9.5-1.9,19.1-5.3,25.1-11.4c4.6-4.7,6.8-10.7,7.5-16.7
		c1.4-12.8-4.2-26.5-16.9-34.7c-9.4-6.1-22.7-9.5-27.6-18.3c-2.2-4-2.4-8.7-5.8-12.1c-3.6-3.5-10-4.6-15.6-3.7
		c-5.6,0.8-10.6,3.3-15.3,5.9c-14.1,7.8-27.9,18.8-27.9,32.4c0,4.2,1.4,8.3,2.7,12.3c3.9,11.7,1.8,25.8,11.8,35
		C441.5,673,453.6,675.1,456.7,676.5z"/>
	<path class="purple" d="M708,760.1c-20-7.6-47.1,17.2-54.3,31.1c-7.1,13.9-1.9,29.1,5.4,42.9s16.7,27.6,18,42.2c0.7,8-1.1,15.9,0,23.9
		c1.8,13.5,12.6,26.7,30.4,34.6c17.7,7.9,42.4,9.8,62,3.8c19.5-6,32.2-20.3,28.2-33.6c-3-10-14-18.2-21.1-27.3
		c-13.6-17.3-8.4-38.2-17.9-56.5c-6.5-12.6-26.6-18.2-33.8-28.3C714.7,778.6,720.2,764.8,708,760.1z"/>
</g>
<g id="outline">
	<path id="sarina" pathLength="1" class="gray" d="M814,1.6C848.1,91,931.7,155,1052.8,195.5c195.3,65.2,422.6-6.4,395.6-99.1
		c-14.7-50.5-138.5-36.3-210.3-8.8c-146.8,56.2-299.4,193.8-364.5,221c-124.7,52.1-189.9,58.5-350,70.3
		C340.6,392.4,166.8,457.2,139.7,585c-11.9,56.2,10.6,129.6,58.9,189.7c14.7,18.3,48.7,53.5,70.4,61.4c6,2.2,18.1,6.6,20.2,0.6
		c1.8-5-10.5-15.7-30-15.2c-17.8,0.5-44.1-8.2-57.3-12.8c-20.4-7.2-77.6-26-81.1-24.2c-3.1,1.6,2,8.2,4.5,10.4
		c15.4,13.8,84.4,37.9,111.6,47.7c52.3,18.9,288.3,111.2,338.4,118.8c34.6,5.2,91.5-2.8,125.3,6.7c36.6,10.3,42.5,28,55.7,39.5
		c39.6,34.5,68.3,27.4,68.3,27.4s-66.5,15.4-88.5,16.1c-16.2,0.5-46.4-1.7-61.5-7.3c-57.9-21.6-50.4-51.5-60.3-74.1
		c-4.2-9.7-24.2-18.1-32.3-22.2c-40.6-20.3-114.5-47.2-164-68.6c-21.4-9.3-74.1-26.9-94.6-37.9c-16.8-9-53-21.5-60.8-46.8
		c-2.7-8.7,0.5-29.4,16.7-44.9c24.6-23.5,62.4-20.2,81.6-23.2c18.7-3,64.3-8.1,65.4-33.4c1.7-38.7-37.3-44.1-53.4-55.4
		c-12.9-9.1-40-29.3-38.1-65.3c0.8-15.3,24.7-25.6,39.9-29.2c50.1-12,185.1,45.5,223.4,66.4c191.6,104.1,223.5,257,198.9,332.6
		c-2.6,8-9.7,17-15.1,31.3c-5.6,14.7-10.9,26.7-18.9,40.1c-4,6.7-15.1,18-22.5,19.5c-3.2,0.7-0.8-13.1,1.3-17.7
		c3.9-8.7,23.7-22.2,20.7-32.7c-3.6-12.5-40.2-12.7-46.5-16.6c-4-2.4-4.7-6.9-5-10.8c-1.7-21.5,11.5-39.1,11.6-46.6
		c0.2-14.3-21.9-22.2-22.6-32.7c-0.4-5.6,2.8-9.7,8.1-11.2c10.6-3,15.8-0.4,18.7,0.3c6,1.4,10.3,8.3,12.6,13.9
		c2.9,7,4.5,26.5,7.4,33.5c2.6,6.2,15.5,17.6,12.8,23.7c-5.2,11.9-23,10.1-33.3,8.7c-11.7-1.6-40.5-13.7-44.2-26.8
		c-2-7,6.4-11.3,6.7-17.9c0.5-11.3-8.7-25.2-3.9-34.3c5-9.5,19.6-8.6,28.6-8c11.3,0.7,28.2,1.3,32.7-9.9c2.5-6.3-2.1-16.7-14.3-24.3
		c-7.8-4.8-28.4-16.4-33-30.1c-3.1-9,4.7-20.2-8.1-27.7c-7.5-4.4-23.9,4.7-32.2,14.1c-6.5,7.4-11.9,19.2-8.5,28.5
		c2.9,8,15.2,31.9,46.5,23.1c17.3-4.8,23.2-25.5,22.6-41.9c-0.4-12.5-6.1-34.8-23.3-47.3c-11.9-8.6-26.5-12.9-43.7-11
		c-9.3,1-25.4,9.3-40,9.2c-20.5-0.1-29.3-5.1-31.2-13c-2.4-10.3,10.2-16.4,8.7-23.6c-1.6-7.6-17.5-3.6-20.6-16.6
		c-1.1-4.6,3.3-12.6,12.2-13.5c9.3-0.9,13.8,3.7,19.3,5.1c9,2.3,32.6,1.4,41.2,4.8c8.5,3.4,19.8,8.6,22.9,23.2
		c3.1,14.9-8.1,24.7-17.1,29.7c-13.3,7.5-52.9,11.3-66.2,4c-5.3-2.9-9-8.5-7.9-14.5c1.9-10.1-2.7-16.1-6.5-20.1
		c-4.4-4.7-10.4-10.4-10.6-16.6c-0.3-9.8,15.3-21,13.8-33.7c-0.8-7.3-10.6-15.1-22.9-17c-22.1-3.5-27.7,13.3-38.4,17.5
		c-7.7,3-17.5-4-20.9-6.7c-5.2-4.2-13-21.9-24-17.4c-9.3,3.9-7.6,19.3-4.6,23.4c13.8,18.8,26.1,8.1,40.8,8.6c16.6,0.6,19,8,28.1,4.8
		c4.7-1.6,9.8-10.7,10.9-19.3c0.9-6.9,0.4-17.1-9.7-22.4c-4.8-2.5-14,0-24.8-5.4c-5.2-2.6-6.1-15.8-10.5-19.6
		c-5.3-4.6-15.4-5.9-22.4-6c-16.2-0.3-32.7,2.8-38.6,15.6c-7.7,16.9,0.6,30.6,8,42.5c6.2,9.9,16,23.4,14.4,38.8
		c-0.7,6.6-6,15.6-13.2,19.4c-3.1,1.6-5.3,4.5-5.5,8c-0.9,17.1,26.4,28.2,29.2,61.3c1.1,12.7-9.3,29-24.6,36.1
		c-10.5,4.9-24.3,6.7-40.6-6.6c-9.2-7.5-27-27.2-27.6-43.2c-0.3-9.6,2.8-21.9,16.9-30.6c7.4-4.6,22.7-8.5,34.6-5.4
		c8.6,2.2,21.9,11.6,17.4,10.2c-32.5-10.6-71,1.6-91.2,44.9c-5.5,11.9-13.9,34.8-24.7,47.5c-10.3,12.2-36.8,25.5-40.7,45
		c-5.9,29.7,26.8,60.4,42.1,74.9c29.6,28.2,100,70.4,136.8,86.9c31.2,14,75.7,32.3,131.3,36.5c21,1.6,58.1,3.9,85.3-11.2
		c12.2-6.8,34.8-6.7,52.2,4.4c25.6,16.3,33.6,45.7,101.8,70.8c55,20.3,156.3,33.7,233.5,21.5c33.9-5.3,102.6-18.4,139.5-37.6
		c23-11.9,58.2-28.1,67-58.9c4.2-14.7-6.4-39.6-41.1-30c-7,2-22.5,11.7-24.5,23.5c-3.2,18.9,9.1,32.1,24.9,44.9
		c27.4,22.1,80.6,25,129,10.8c42.4-12.5,90.3-42.7,147.3-81.6c52.5-35.9,113.2-37.8,113.2-37.8c7.2-0.8,15.8-6.5,18-13.5
		c0.3-0.9,0.8-4.1-1.8-4c-2.4,0.1-4.5,0.4-6.5,1.7c-3.9,2.6-6.6,6.8-5.1,11.3c1.8,5.8,15.7,11,20.7,16.4c2.3,2.5,4.6,3.1,4,7
		c-0.2,1.6-2.4,5.3-3.7,6.2c-5,3.8-12.7,3.1-16.3-2.1c-2.6-3.8-1.7-8.9,1.7-12c5.2-4.7,11.6-8.1,18.5-9.8c5.6-1.4,11.6-1.7,16.6-4.4
		c3.9-2.1,7-5.6,10.6-8.2c3.6-2.6,11.6-5.6,15.7-3.8c-3.7-2.5-11.9,1.5-15.1,4.6c-4.5,4.2-8.4,10.9-4.8,16.1c3.4,5,10,5.2,14.1,0.8
		c4.7-4.9,8.4-12.9,7.4-20c3.5-0.8,2.8,7.5,4.4,10.7c3.5,7.1,6.6,9.9,14.4,9.3c7.8-0.7,17.7-5.7,19.9-13.2l8.1-3.5
		c2-0.9,4.4-1.8,6.8-2.8c1.5-0.6,2.9,1,2.1,2.5c-3.8,6.7-7.3,15.7-7.2,22.2c0.1,4.1,1,7.1,3.5,10.3s8.7,2.3,12.4,0.7
		c5.2-2.2,16.5-17.7,22-26.2c3.5,0-3.9,7.2-4.5,11.6c-0.7,4.3-7.7,19.7,10.9,9.6c10-5.4,18.2-12.8,26.9-22.1
		c-1.3,9.3-7,17.7-7.6,26.4c0,0,8.2-16.5,14.1-20.7c3.9-2.8,9.1-4.4,12.6-4c4,0.5-0.4,13.5,10.6,21.1c5.2,3.6,16,1.8,21.5-1.3
		c5.5-3.1,8.7-8.6,11.9-13.9s2.5-10.5,7.2-14.7s13.3-5.8,19.2-3.6c-7.6-2.4-17.5,2.3-21.2,9.3c-1.5,2.9-2.5,8.7-0.8,11.5
		c1.9,3.3,6.3,3.9,9.6,2c3.3-1.8,8.4-8.1,9.6-11.7c1.2-3.6,2.1-6.1,3.5-9.6c-0.1,3-1.1,17.6,8.3,19.7c3.8,0.9,12.1-0.3,15.7-1.9
		c2.7-1.2,8.5-4.1,10.9-7.8"/>
	<path id="chen" class="gray" pathLength="1" d="M1913.6,1027.8c-2.1-2.8-6-3.6-9.5-3.1c-11.9,1.9-16.8,13.6-16.3,18.9c1,10.7,13.5,13.6,17.6,14.2
		c16.5,2.5,23.4-6,27.7-9.9c8-7.2,14.9-15.5,21.8-23.8c12.1-14.8,24.5-30.7,27.7-49.6c-8,2.5-12.6,10.5-16.5,17.8
		c-8.6,16.3-17.4,32.8-21.5,50.7c-1.7,7.5-2.6,15.5-0.7,22.9c1-8,3.8-15.8,8.2-22.7c0.9-1.4,2-2.9,3.6-3.5c3.1-1,6.7,0.9,7.9,3.9
		c1.2,3,3.6,8.6,5.8,11c2.9,3.1,7.9,4.8,12,3.6c7.7-2.2,10.5-8.1,13.5-15.6l3.2-5.5c10.1-0.4,22.1-10.1,22.3-13.5
		c0.3-3.9-10.3-2.7-15.1,1.4c-6.9,5.9-10,9.7-9.9,15.6c0,1.7,1.3,3.1,1.8,4.7c1.5,4.7,10.2,7.6,15.1,8c11.8,0.9,20.9-3.1,31-9.4
		c3.7-2.3,7.3-5.2,8.8-9.3c-2.2,8.9-5.9,18.4-7.5,27.4c3.9-7.3,9.2-14.2,15.4-21.4c2.6-3,5.7-4.6,9.7-4.6c4.3,0,5.8,3.2,6.8,5.5
		c3,6.7,3.5,14.4,9.6,18.5c3.6,2.4,13.2,5.1,24.7-6.5c5.5-5.6,7.9-11.7,10.9-18.9"/>
	<path id="i" class="gray" pathLength="1" d="M1792.8,974.9c0,0,1.8-0.4,2.5-0.8c0.5-0.3,0.7-1.2,0.7-1.2"/>
</g>
</svg>
