<?xml version="1.0" encoding="utf-8"?>
<!-- Generator: Adobe Illustrator 25.4.1, SVG Export Plug-In . SVG Version: 6.00 Build 0)  -->
<svg version="1.1" id="Layer_1" xmlns="http://www.w3.org/2000/svg" xmlns:xlink="http://www.w3.org/1999/xlink" x="0px" y="0px"
	 viewBox="-16 -33.6 1200 650" style="enable-background:new -16 -33.6 1200 650;" xml:space="preserve">
<style type="text/css">
	.st0{opacity:0.4;enable-background:new    ;}
	.st1{fill:#A58EFF;}
	.st2{opacity:0.8;}
	.st3{opacity:0.4;}
	.st4{fill:#00A1E1;}
	.st5{fill:#20CC94;}
	.st6{fill:#EAAC61;}
	.st7{fill:none;stroke:#648585;stroke-width:2;stroke-linejoin:round;stroke-dasharray:11.9619,11.9619;}
	.st8{fill:#395366;}
	.st9{font-family:'AndaleMono';}
	.st10{font-size:23.9044px;}
	.st11{font-size:19.9044px;}
	.st12{fill:#D7DDE0;}
</style>
<g id="curves">
	<g class="st0">
		<path class="st1" d="M419,445.1c64-4,65.7-31.8,97-40c65-17,116.5,35,150,18.1c56.5-28.6,89.9-184.3,150-204.3
			c65-21.7,118,14.3,150,55.1c33.3,42.4,91,159.2,150,171.2H419z"/>
	</g>
	<g class="st2">
		<path class="st1" d="M854.9,212.3c47.2,0,85.7,29.3,111.1,61.6c33.3,42.4,91,159.2,150,171.2H419c64-4,65.7-31.8,97-40
			c8.9-2.3,18-3.5,27.2-3.5c43.5,0,79.8,25,107.3,25c5.4,0.1,10.7-1.1,15.5-3.4c56.5-28.6,89.9-184.3,150-204.3
			C828.5,214.5,841.7,212.3,854.9,212.3 M854.9,210.3v2V210.3c-13.5,0.1-26.8,2.3-39.5,6.6c-32.1,10.7-56.7,59.1-80.5,105.8
			c-21.3,41.9-43.3,85.3-69.8,98.7c-4.5,2.2-9.5,3.3-14.6,3.2c-11.8,0-25.3-4.7-40.9-10.2c-19.6-6.9-41.8-14.7-66.4-14.7
			c-9.4,0-18.7,1.2-27.7,3.5c-12,3.1-19.8,9.1-28.1,15.4c-13.6,10.3-28.9,22.1-68.5,24.6l0.1,4h716.9l-19.5-4
			c-19.1-3.9-39.7-19.3-63.1-47.1c-20.3-24.2-39.2-53.5-55.8-79.3c-11.5-17.8-21.4-33.2-29.9-44.1c-14-17.9-30.6-32.9-47.9-43.4
			C899,216.7,877.2,210.3,854.9,210.3L854.9,210.3z"/>
	</g>
	<g class="st3">
		<path class="st4" d="M216,445.1c75-8,75-59,150-56c74.4,3,66-139,150-130c57.4,6.1,76-47,150-47c71,0,78.5,111.5,150,120
			c59,7,96-30,150-0.1c69.6,38.5,76,102.1,150,113.1H216z"/>
	</g>
	<g class="st2">
		<path class="st4" d="M666,212.1c71,0,78.5,111.5,150,120c5.1,0.6,10.2,0.9,15.4,0.9c34,0,61.1-12.9,90.2-12.9
			c14,0,28.5,3,44.5,11.8c69.6,38.5,76,102.1,150,113.1H216c72.9-7.8,75-56.1,143.8-56.1c2,0,4.1,0,6.2,0.1c0.8,0,1.5,0,2.3,0
			c69.7,0,65-130.5,140.2-130.5c2.5,0,5,0.1,7.5,0.4c3,0.3,6,0.5,9.1,0.5C575.6,259.6,596,212.1,666,212.1 M666,210.1
			c-38.4,0-62.4,14.3-83.7,26.9c-17.8,10.6-34.6,20.6-57.3,20.6c-3,0-5.9-0.2-8.9-0.5c-2.6-0.3-5.1-0.4-7.7-0.4
			c-39.6,0-57.6,34.7-75,68.2c-16.6,32-32.3,62.3-65.3,62.3c-0.7,0-1.5,0-2.2,0c-2.1-0.1-4.3-0.1-6.3-0.1c-35.9,0-53.9,12.9-73,26.5
			c-17.7,12.7-36.1,25.9-71,29.6l0.2,4h900l0.3-4c-41.5-6.2-61.1-28.9-83.8-55.2c-16.6-19.2-35.4-41-65.5-57.7
			c-14.9-8.2-29.3-12.1-45.4-12.1c-14.2,0-27.7,3-42,6.1c-15.1,3.3-30.8,6.8-48.2,6.8c-5.1,0-10.1-0.3-15.1-0.9
			c-34.2-4.1-53.7-32.8-72.6-60.6c-9.9-14.5-20.1-29.6-32.2-40.7C697.6,216.2,682.8,210.1,666,210.1z"/>
	</g>
	<g class="st0">
		<path class="st5" d="M66,445.1c0,0,117.4,2.2,150-17c55.4-32.6,75-169,150-209.3c32.6-17.5,116.7-17.3,150,0
			c95,49.3,93.2,165.3,150,178.6c39.8,9.3,75-72.3,150-65.4c74.4,6.8,92,104.1,150,113.1H66z"/>
	</g>
	<g class="st2">
		<path class="st5" d="M440.4,205.8c29.4,0,58.9,4.4,75.6,13c95,49.3,93.2,165.3,150,178.6c2.1,0.5,4.3,0.7,6.5,0.7
			c35.7,0,69.6-66.6,134.7-66.6c2.9,0,5.9,0.1,8.9,0.4c74.4,6.8,92,104.1,150,113.1H88.6c35.8-0.4,103.8-3.1,127.4-17
			c55.4-32.6,75-169,150-209.3C382.2,210.1,411.3,205.8,440.4,205.8 M88.6,445.1c-4.6,0.1-8.6,0.1-11.9,0.1
			c-6.7,0-10.7-0.1-10.7-0.1H88.6 M440.4,203.8c-31.7,0-59.9,5-75.4,13.3c-18.5,9.9-35.3,26.5-51.3,50.6
			c-14.1,21.2-25.8,45.3-37.2,68.7c-18.9,38.8-36.7,75.4-61.6,90.1c-22.9,13.5-89,16.3-126.4,16.7H66l0,4c0,0,4.1,0.1,10.7,0.1
			c3.9,0,7.9,0,12-0.1H966l0.3-4c-26-4-43.9-26.7-62.8-50.7c-11.2-14.2-22.7-28.8-36.6-40.4c-15.8-13.2-32.4-20.4-50.7-22.1
			c-3-0.3-6.1-0.4-9.1-0.4c-17,0-33.4,4.4-50.1,13.6c-14.5,7.9-27.3,18.3-38.7,27.5c-16.8,13.7-31.4,25.5-45.9,25.5
			c-2,0-4-0.2-6-0.7c-25.1-5.9-38.8-33.5-54.7-65.5c-9.5-19.2-20.4-41-35.1-60.9c-17-23-36.5-40-59.7-52
			C500.9,208.7,472.3,203.8,440.4,203.8L440.4,203.8z"/>
	</g>
	<g class="st0">
		<path class="st6" d="M66,445.1c53-16,76-226.3,150-226.3c53,0,82,89.3,150,96.8c90.2,9.9,101,113.5,150,129.5H66z"/>
		<path class="st6" d="M519.1,445.6H62.6l3.2-1c23.2-7,40.8-52.3,59.5-100.2c11.8-30.4,24-61.8,38.5-85.7
			c16.5-27.2,33.5-40.4,52.1-40.4c25.8,0,46,21.1,67.4,43.3c23.4,24.4,47.6,49.6,82.6,53.4c54,5.9,79.4,44.9,101.9,79.4
			c15.3,23.5,28.6,43.8,48.2,50.2L519.1,445.6z M68.8,444.6h444.3c-18.5-7.4-31.3-27-46.1-49.6c-22.3-34.2-47.7-73-101.2-78.9
			c-35.3-3.9-59.7-29.2-83.2-53.7c-21.3-22.1-41.3-43-66.7-43c-18.2,0-35,13.1-51.3,40c-14.4,23.9-26.6,55.2-38.4,85.6
			C108.3,391.1,91.2,435,68.8,444.6z"/>
	</g>
	<g class="st2">
		<path class="st6" d="M216,218.8c53,0,82,89.3,150,96.8c90.2,9.9,101,113.5,150,129.5H66C119,429.1,142,218.8,216,218.8 M216,216.8
			c-19.2,0-36.7,13.5-53.4,41.2c-14.5,24-26.8,55.5-38.6,85.9c-18.5,47.5-36,92.5-58.5,99.3l-13,3.9h476.1l-11.9-3.9
			c-19.1-6.2-32.2-26.3-47.4-49.6c-11.4-17.5-23.2-35.5-39.3-50.5c-18.5-17.2-39.3-26.8-63.7-29.5c-34.4-3.8-58.5-28.8-81.7-53
			C262.9,238.1,242.4,216.8,216,216.8L216,216.8z"/>
	</g>
</g>
<g id="text">
	<g class="st3">
		<path class="st6" d="M149.4,1h143.3c16.5,0,29.9,13.4,29.9,29.9v97.9c0,16.5-13.4,29.9-29.9,29.9H149.4
			c-16.5,0-29.9-13.4-29.9-29.9V30.9C119.6,14.4,132.9,1,149.4,1z"/>
		<path class="st7" d="M149.4,1h143.3c16.5,0,29.9,13.4,29.9,29.9v97.9c0,16.5-13.4,29.9-29.9,29.9H149.4
			c-16.5,0-29.9-13.4-29.9-29.9V30.9C119.6,14.4,132.9,1,149.4,1z"/>
	</g>
	<g class="st3">
		<path class="st5" d="M395.4,1h143.3c16.5,0,29.9,13.4,29.9,29.9v97.9c0,16.5-13.4,29.9-29.9,29.9H395.4
			c-16.5,0-29.9-13.4-29.9-29.9V30.9C365.6,14.4,378.9,1,395.4,1z"/>
		<path class="st7" d="M395.4,1h143.3c16.5,0,29.9,13.4,29.9,29.9v97.9c0,16.5-13.4,29.9-29.9,29.9H395.4
			c-16.5,0-29.9-13.4-29.9-29.9V30.9C365.6,14.4,378.9,1,395.4,1z"/>
	</g>
	<g class="st3">
		<path class="st4" d="M640.4,1h143.3c16.5,0,29.9,13.4,29.9,29.9v97.9c0,16.5-13.4,29.9-29.9,29.9H640.4
			c-16.5,0-29.9-13.4-29.9-29.9V30.9C610.6,14.4,623.9,1,640.4,1z"/>
		<path class="st7" d="M640.4,1h143.3c16.5,0,29.9,13.4,29.9,29.9v97.9c0,16.5-13.4,29.9-29.9,29.9H640.4
			c-16.5,0-29.9-13.4-29.9-29.9V30.9C610.6,14.4,623.9,1,640.4,1z"/>
	</g>
	<g class="st3">
		<path class="st1" d="M891.4,1h143.3c16.5,0,29.9,13.4,29.9,29.9v97.9c0,16.5-13.4,29.9-29.9,29.9H891.4
			c-16.5,0-29.9-13.4-29.9-29.9V30.9C861.6,14.4,874.9,1,891.4,1z"/>
		<path class="st7" d="M891.4,1h143.3c16.5,0,29.9,13.4,29.9,29.9v97.9c0,16.5-13.4,29.9-29.9,29.9H891.4
			c-16.5,0-29.9-13.4-29.9-29.9V30.9C861.6,14.4,874.9,1,891.4,1z"/>
	</g>
	<text transform="matrix(1 0 0 1 921.3989 70.9854)" class="st8 st9 st10">python</text>
	<text transform="matrix(1 0 0 1 942.9165 99.6709)" class="st8 st9 st10">sql</text>
	<text transform="matrix(1 0 0 1 942.9165 128.356)" class="st8 st9 st10">aws</text>
	<text transform="matrix(1 0 0 1 910.6831 36.9854)" class="st1 st9 st11">pipelines</text>
	<text transform="matrix(1 0 0 1 672.3989 70.9854)" class="st8 st9 st10">python</text>
	<text transform="matrix(1 0 0 1 643.7094 99.6709)" class="st8 st9 st10">statistics</text>
	<text transform="matrix(1 0 0 1 679.6001 36.9854)" class="st4 st9 st11">models</text>
	<text transform="matrix(1 0 0 1 430.5718 70.9854)" class="st8 st9 st10">d3.js</text>
	<text transform="matrix(1 0 0 1 416.2271 99.6709)" class="st8 st9 st10">tableau</text>
	<text transform="matrix(1 0 0 1 423.3989 128.356)" class="st8 st9 st10">python</text>
	<text transform="matrix(1 0 0 1 412.6831 36.9854)" class="st5 st9 st11">analytics</text>
	<text transform="matrix(1 0 0 1 142.5366 70.9854)" class="st8 st9 st10">illustrator</text>
	<text transform="matrix(1 0 0 1 156.8813 99.6709)" class="st8 st9 st10">photoshop</text>
	<text transform="matrix(1 0 0 1 156.8813 128.356)" class="st8 st9 st10">lightroom</text>
	<text transform="matrix(1 0 0 1 203.5171 36.9854)" class="st6 st9 st11">art</text>
</g>
<g id="legend">
	<text transform="matrix(6.123234e-17 -1 1 6.123234e-17 223.291 501.6348)" class="st8 st9 st10">art</text>
	<text transform="matrix(6.123234e-17 -1 1 6.123234e-17 373.2908 544.6689)" class="st8 st9 st10">charts</text>
	<text transform="matrix(6.123234e-17 -1 1 6.123234e-17 523.291 573.3594)" class="st8 st9 st10">insights</text>
	<text transform="matrix(6.123234e-17 -1 1 6.123234e-17 673.291 544.6689)" class="st8 st9 st10">models</text>
	<text transform="matrix(6.123234e-17 -1 1 6.123234e-17 823.291 602.0488)" class="st8 st9 st10">transforms</text>
	<text transform="matrix(6.123234e-17 -1 1 6.123234e-17 973.291 616.3945)" class="st8 st9 st10">deployments</text>
</g>
<g id="line">
	<g>
		<path class="st12" d="M1,445.1h1182c0.6,0,1,0.4,1,1l0,0c0,0.6-0.4,1-1,1H1c-0.6,0-1-0.4-1-1l0,0C0,445.5,0.4,445.1,1,445.1z"/>
	</g>
</g>
</svg>
